<svg width="170" height="186" viewBox="0 0 170 186" fill="none" xmlns="http://www.w3.org/2000/svg">
<path d="M29.63 61.7821H114.703L115.833 61.9436L116.801 62.4278L117.609 63.1543L118.012 63.6386L118.416 64.4457L118.577 64.93V66.4636L118.093 67.9164L116.721 71.6293L115.429 75.1L113.976 78.9743L113.492 79.9428L112.766 80.75L112.039 81.2343L111.151 81.6378L110.586 81.7993L108.326 81.88H74.3457L72.7314 82.0414L71.6014 82.3643L70.7136 82.7678L69.9064 83.2521L69.18 83.8171L68.7764 84.2207H68.615L68.4536 84.5436L67.8079 85.3507L67.0007 86.8843L66.6779 87.9336L66.5164 89.225L66.2743 93.9064L65.7093 105.206L65.4672 110.453L64.9829 120.461L64.4179 131.842L63.8529 143.707L63.3686 153.716L62.8036 165.096L62.2386 176.881L62.0772 178.414L61.6736 179.786L61.0279 181.078L60.4629 181.966L59.4136 183.096L58.1222 183.984L56.9922 184.549L55.9429 184.871L55.1357 185.033L54.2479 185.114H29.065L27.6929 184.952L26.4014 184.549L25.0293 183.903L23.98 183.096L23.7379 182.934V182.773L23.415 182.611L22.6886 181.724L22.0429 180.674L21.6393 179.786L21.3164 178.656L21.155 177.204L19.7022 152.666L18.33 129.259L18.2493 127.968L18.0072 127.161L17.6036 126.676L16.9579 126.354L15.7472 126.111L9.61287 125.224L5.8193 124.578L4.60858 124.255L3.31715 123.609L2.4293 122.883L1.62215 121.995L0.976438 120.865L0.572867 119.816L0.411438 119.009V117.798L1.62215 106.014L2.18715 100.606L2.75215 95.0364L3.47858 88.0143L3.80144 85.0278L4.1243 82.9293L4.60858 80.9114L5.09287 79.2971L5.98072 77.1178L7.03001 75.0193L7.99858 73.4857L8.96715 72.1136L10.0164 70.8221L10.2586 70.4993H10.42L10.5814 70.1764L12.1957 68.5621L12.8414 67.9971L13.9714 67.1093L15.4243 66.06L17.2 65.0107L18.4107 64.365L20.2672 63.5578L22.6886 62.7507L24.7064 62.2664L26.8857 61.9436L27.7736 61.8628L29.63 61.7821Z" fill="black"/>
<path d="M122.694 95.5207H126.971L129.958 95.7629L132.864 96.1664L135.124 96.6507L137.626 97.2964L140.935 98.4264L143.034 99.3143L145.374 100.444L146.746 101.171L148.764 102.381L149.975 103.189L151.428 104.238L152.477 105.045L153.365 105.771L154.414 106.659L155.383 107.547L155.706 107.789V107.951L156.029 108.112L156.997 109.081L157.562 109.726L158.611 110.856L159.338 111.744L160.387 113.036L161.436 114.489L162.566 116.184L163.777 118.201L164.907 120.3L166.037 122.802L166.925 125.062L167.732 127.564L168.378 130.066L168.943 132.891L169.266 135.394L169.427 137.25L169.508 138.784V141.366L169.346 143.949L169.104 146.209L168.62 149.115L168.055 151.456L167.49 153.474L166.683 155.814L165.714 158.155L165.069 159.608L164.261 161.141L163.131 163.159L162.405 164.289L161.759 165.258L160.791 166.63L159.661 168.083L158.934 168.971L158.127 169.859L157.562 170.504L156.916 171.15L156.836 171.311H156.674V171.473H156.513V171.634H156.351V171.796H156.19V171.957L155.544 172.522L154.818 173.249L153.93 173.975L152.8 174.944L151.751 175.751L150.298 176.8L148.684 177.849L147.473 178.576L145.778 179.544L143.518 180.674L141.016 181.724L138.514 182.611L135.608 183.419L132.864 183.984L130.2 184.387L127.698 184.629L126.245 184.71H123.42L120.03 184.468L117.205 184.064L114.461 183.499L112.039 182.854L108.972 181.804L106.631 180.836L104.452 179.786L102.676 178.818L101.062 177.849L99.2865 176.639L97.7529 175.509L96.4615 174.459L95.4122 173.571L94.3629 172.603L91.78 170.02L91.215 169.374L90.3272 168.325L89.4393 167.195L88.3093 165.661L87.3407 164.209L86.2915 162.514L85.2422 160.576L84.3543 158.801L83.3857 156.541L82.4979 154.119L81.6907 151.375L81.045 148.469L80.6415 145.886L80.3993 143.626L80.3186 142.496V137.654L80.5607 134.909L80.8836 132.649L81.5293 129.501L82.175 127.161L82.9822 124.739L84.0315 122.156L84.8386 120.381L85.6457 118.847L86.695 116.991L88.4707 114.327L89.4393 113.036L90.3272 111.906L91.215 110.856L92.2643 109.646L94.8472 107.063L95.735 106.336L96.5422 105.61L98.6407 103.996L99.9322 103.108L101.546 102.059L102.919 101.251L104.694 100.283L106.874 99.2336L109.053 98.3457L111.959 97.3771L114.299 96.7314L116.963 96.1664L119.788 95.7629L122.694 95.5207ZM139.563 124.094L138.433 124.255L137.464 124.578L136.496 125.143L135.689 125.869L134.962 126.596V126.757H134.801L134.236 127.403L133.025 128.694L132.137 129.663L131.007 130.874L130.119 131.842L129.877 132.084V132.246H129.716L129.151 132.891L127.859 134.264L127.779 134.506H127.617L127.052 135.151L125.922 136.362L124.954 137.411L123.662 138.784L123.581 139.026H123.42L122.855 139.671L121.725 140.882L120.756 141.931L120.514 142.174L120.272 142.254L120.111 141.931L119.546 141.286L117.044 138.622L116.479 138.057L115.914 137.411L115.187 136.685L114.622 136.039L113.734 135.151L112.604 134.425L111.394 134.021L110.829 133.941H109.618L108.407 134.183L107.116 134.829L106.389 135.394L105.824 135.959L105.259 136.766L104.775 137.734L104.533 138.622L104.452 139.187V140.64L104.775 141.931L105.34 143.061L105.905 143.788L106.551 144.434L107.116 145.079L108.165 146.129L108.73 146.774L109.779 147.824L110.344 148.469L111.071 149.196L111.636 149.841L112.362 150.568L112.927 151.214L113.976 152.263L114.541 152.909L115.349 153.716L115.914 154.361L116.64 155.088L117.447 155.653L118.335 156.056L119.384 156.299H120.999L121.967 156.056L123.259 155.411L124.308 154.604L125.196 153.716L125.761 153.07L126.326 152.505L126.891 151.859L127.617 151.133L128.182 150.487L128.586 150.084V149.922H128.747L129.312 149.276L132.944 145.402L133.106 145.079H133.267L133.832 144.434L135.043 143.142L135.527 142.658V142.496H135.689L136.254 141.851L136.738 141.366V141.205L136.98 141.124L137.545 140.479L137.787 140.236V140.075H137.949L138.514 139.429L139.724 138.138L140.047 137.815V137.654H140.209L140.774 137.008L141.5 136.281L142.065 135.636L142.469 135.232V135.071H142.63L143.195 134.425L144.164 133.376L144.729 132.488L145.132 131.6L145.374 130.631V128.856L145.051 127.564L144.406 126.354L143.599 125.466L142.469 124.739L141.5 124.336L140.774 124.174L139.563 124.094Z" fill="black"/>
<path d="M40.4457 0.762146H42.7057L44.7236 0.923575L46.8221 1.24643L48.84 1.73072L50.4543 2.215L52.4721 3.02215L54.0057 3.74857L55.2971 4.475L56.8307 5.44357L58.1221 6.41215L59.4136 7.46143L60.7857 8.75286L61.4314 9.39857L61.9964 10.0443L63.0457 11.3357L64.0143 12.7079L64.9828 14.2414L66.1936 16.5821L67.0814 18.7614L67.7271 20.86L68.2114 23.12L68.4536 24.8957L68.5343 25.8643V29.6579L68.2921 31.7564L68.05 33.2093L67.485 35.4693L66.92 37.1643L66.1128 39.1014L65.225 40.8771L64.3371 42.33L63.6107 43.3793L62.965 44.2671L62.2386 45.155L62.0771 45.3971H61.9157L61.7543 45.72L60.4628 47.0921L59.4136 48.0607L58.5257 48.7871L57.4764 49.5943L56.0236 50.5629L54.8128 51.2893L53.1178 52.1771L51.0193 53.065L48.6786 53.7914L46.4993 54.2757L44.2393 54.5986L43.3514 54.6793H39.4771L36.975 54.3564L34.715 53.8721L32.6164 53.2264L31.0021 52.5807L29.7107 52.0157L27.935 51.0471L26.4014 50.0786L25.11 49.11L23.8186 48.0607L23.1728 47.415L22.5271 46.85L21.9621 46.285L21.3971 45.6393L20.4286 44.5093L19.46 43.2179L18.4107 41.6036L17.4421 39.8279L16.7157 38.2943L15.9086 36.115L15.3436 34.0971L14.94 32.0793L14.6978 30.3036L14.6171 29.2543V26.1064L14.8593 23.8464L15.3436 21.425L15.9086 19.4071L16.635 17.3893L17.765 15.0486L18.6528 13.515L19.6214 12.0621L20.6707 10.69L21.72 9.47929L23.6571 7.54215L24.545 6.81572L25.675 5.92786L27.6121 4.63643L29.065 3.82929L30.3564 3.18357L32.2936 2.37643L34.3114 1.73072L36.3293 1.24643L38.4278 0.923575L40.4457 0.762146Z" fill="black"/>
</svg>
