<svg width="64" height="64" viewBox="0 0 64 64" fill="none" xmlns="http://www.w3.org/2000/svg">
<path d="M59 49C59.5299 49.0016 60.0377 49.2128 60.4125 49.5875C60.7872 49.9623 60.9984 50.4701 61 51C60.9961 51.5292 60.7841 52.0356 60.4099 52.4099C60.0356 52.7841 59.5292 52.9961 59 53H9C8.47005 53.0016 7.96227 53.2128 7.58753 53.5875C7.2128 53.9623 7.00158 54.4701 7 55C7.00393 55.5292 7.2159 56.0356 7.59012 56.4099C7.96435 56.7841 8.47078 56.9961 9 57H59C59.5299 57.0016 60.0377 57.2128 60.4125 57.5875C60.7872 57.9623 60.9984 58.4701 61 59C60.9961 59.5292 60.7841 60.0356 60.4099 60.4099C60.0356 60.7841 59.5292 60.9961 59 61H9C7.4087 61 5.88258 60.3679 4.75736 59.2426C3.63214 58.1174 3 56.5913 3 55C3.00238 53.4094 3.63529 51.8847 4.75999 50.76C5.88469 49.6353 7.40943 49.0024 9 49H59Z" fill="#BDDBFF"/>
<path d="M53.2 29L54 33L53.17 42.18C53.1229 42.6779 52.8919 43.1403 52.522 43.4769C52.1522 43.8134 51.6701 44 51.17 44H42V49H35L33.18 38.82L34 38L37 39L38.59 35.03C39.6661 35.1363 40.6929 35.5339 41.56 36.18C42.5396 35.4291 43.7358 35.0151 44.97 35C46.4585 34.992 47.8962 35.5413 49 36.54V29H53.2Z" fill="#BDDBFF"/>
<path d="M44 15L39 16.67L32 19L25 16.67L20 15L32 11L44 15Z" fill="#BDDBFF"/>
<path d="M39 16.67V22H25V16.67L32 19L39 16.67Z" fill="#BDDBFF"/>
<path d="M38.59 35.03L37 39L34 38L33 36L35 35H38C38.1971 34.9998 38.394 35.0098 38.59 35.03Z" fill="#BDDBFF"/>
<path d="M31 36L30 38L27 39L25.41 35.03C25.606 35.0098 25.803 34.9998 26 35H29L31 36Z" fill="#BDDBFF"/>
<path d="M30.82 38.82L29 49H22V44H12.83C12.3299 44 11.8478 43.8134 11.478 43.4769C11.1081 43.1403 10.877 42.6779 10.83 42.18L10 33L10.8 29H15V36.54C16.1038 35.5413 17.5415 34.992 19.03 35C20.2642 35.0151 21.4604 35.4291 22.44 36.18C23.3071 35.5339 24.3339 35.1363 25.41 35.03L27 39L30 38L30.82 38.82Z" fill="#BDDBFF"/>
<path d="M30 24H28V26H30V24Z" fill="black"/>
<path d="M36 24H34V26H36V24Z" fill="black"/>
<path d="M60 4V2H58V4H56V6H58V8H60V6H62V4H60Z" fill="black"/>
<path d="M51 16H53V14H55V12H53V10H51V12H49V14H51V16Z" fill="black"/>
<path d="M4 8H6V6H8V4H6V2H4V4H2V6H4V8Z" fill="black"/>
<path d="M11 16H13V14H15V12H13V10H11V12H9V14H11V16Z" fill="black"/>
<path d="M59 56C58.7348 56 58.4804 55.8946 58.2929 55.7071C58.1054 55.5196 58 55.2652 58 55C58 54.7348 58.1054 54.4804 58.2929 54.2929C58.4804 54.1053 58.7348 54 59 54C59.7956 54 60.5587 53.6839 61.1213 53.1213C61.6839 52.5587 62 51.7956 62 51C62 50.2043 61.6839 49.4413 61.1213 48.8787C60.5587 48.3161 59.7956 48 59 48H43V45H51.17C51.9207 45.0054 52.6457 44.7272 53.2001 44.221C53.7544 43.7148 54.0973 43.018 54.16 42.27L55 33.09C55.0033 32.9929 54.9966 32.8957 54.98 32.8L53.62 26.03C53.3956 24.8951 52.7845 23.8731 51.891 23.1383C50.9975 22.4034 49.8769 22.0011 48.72 22H48.11C47.4271 21.9876 46.7595 22.2031 46.2126 22.6123C45.6657 23.0216 45.2708 23.6013 45.09 24.26C44.9785 24.703 44.9693 25.1656 45.0634 25.6126C45.1574 26.0597 45.352 26.4794 45.6326 26.8399C45.9131 27.2005 46.2721 27.4923 46.6823 27.6933C47.0925 27.8944 47.5432 27.9992 48 28V34.68C47.0486 34.2337 46.0109 34.0016 44.96 34C43.7552 34.0096 42.5761 34.3485 41.55 34.98C40.6823 34.4574 39.7084 34.1361 38.7 34.04C38.4678 34.0114 38.234 33.9981 38 34H36V32.92C36.9164 32.3863 37.7185 31.677 38.3603 30.8327C39.0021 29.9884 39.4709 29.0258 39.74 28H40C40.7956 28 41.5587 27.6839 42.1213 27.1213C42.6839 26.5587 43 25.7956 43 25C43 24.2043 42.6839 23.4413 42.1213 22.8787C41.5587 22.3161 40.7956 22 40 22V17.39L43 16.39V21H45V15C44.9985 14.7908 44.9323 14.5873 44.8106 14.4172C44.6888 14.2471 44.5175 14.1189 44.32 14.05L32.32 10.05C32.1124 9.97988 31.8876 9.97988 31.68 10.05L19.68 14.05C19.4799 14.1157 19.3057 14.243 19.1822 14.4136C19.0587 14.5842 18.9923 14.7894 18.9923 15C18.9923 15.2106 19.0587 15.4158 19.1822 15.5864C19.3057 15.757 19.4799 15.8842 19.68 15.95L24 17.39V22C23.2044 22 22.4413 22.3161 21.8787 22.8787C21.3161 23.4413 21 24.2043 21 25C21 25.7956 21.3161 26.5587 21.8787 27.1213C22.4413 27.6839 23.2044 28 24 28H24.26C24.5291 29.0258 24.9979 29.9884 25.6397 30.8327C26.2815 31.677 27.0836 32.3863 28 32.92V34H26C24.7468 34.0002 23.5168 34.3388 22.44 34.98C21.4181 34.3474 20.2418 34.0083 19.04 34C17.9888 33.9988 16.9505 34.2311 16 34.68V28C16.6635 27.9901 17.3056 27.7641 17.829 27.3563C18.3523 26.9484 18.7284 26.3809 18.9 25.74C19.0136 25.2977 19.0245 24.8352 18.932 24.388C18.8394 23.9408 18.6458 23.5206 18.366 23.1597C18.0861 22.7988 17.7275 22.5067 17.3174 22.3057C16.9073 22.1047 16.4567 22.0001 16 22H15.28C14.1245 22.0007 13.005 22.4015 12.1117 23.1344C11.2184 23.8673 10.6065 24.8869 10.38 26.02L9.02 32.8C9.0034 32.8957 8.99669 32.9929 9 33.09L9.84 42.27C9.90273 43.018 10.2456 43.7148 10.7999 44.221C11.3543 44.7272 12.0793 45.0054 12.83 45H21V48H9C7.14348 48 5.36301 48.7375 4.05025 50.0502C2.7375 51.363 2 53.1435 2 55C2 56.8565 2.7375 58.637 4.05025 59.9497C5.36301 61.2625 7.14348 62 9 62H59C59.7956 62 60.5587 61.6839 61.1213 61.1213C61.6839 60.5587 62 59.7956 62 59C62 58.2043 61.6839 57.4413 61.1213 56.8787C60.5587 56.3161 59.7956 56 59 56ZM24 26C23.7348 26 23.4804 25.8946 23.2929 25.7071C23.1054 25.5196 23 25.2652 23 25C23 24.7348 23.1054 24.4804 23.2929 24.2929C23.4804 24.1053 23.7348 24 24 24V26ZM47.29 25.69C47.1657 25.5715 47.0758 25.4215 47.03 25.2559C46.9842 25.0904 46.9842 24.9155 47.03 24.75C47.1052 24.5253 47.251 24.331 47.4456 24.1959C47.6402 24.0607 47.8732 23.992 48.11 24H48.72C49.4141 24.0021 50.086 24.2442 50.6219 24.6853C51.1577 25.1264 51.5245 25.7393 51.66 26.42L51.98 28H50V27C50 26.7348 49.8946 26.4804 49.7071 26.2929C49.5196 26.1053 49.2652 26 49 26H48C47.8665 26.0012 47.7343 25.9742 47.6119 25.9207C47.4896 25.8673 47.3799 25.7887 47.29 25.69ZM37.93 39.37L39.22 36.16C39.8479 36.3173 40.439 36.5959 40.96 36.98C41.1331 37.1098 41.3436 37.18 41.56 37.18C41.7764 37.18 41.9869 37.1098 42.16 36.98C42.9711 36.3602 43.9594 36.0168 44.98 36H45.01C46.2362 36.0051 47.4177 36.4607 48.33 37.28C48.4728 37.4123 48.6518 37.4991 48.8441 37.5294C49.0364 37.5597 49.2334 37.532 49.41 37.45C49.5854 37.3711 49.7344 37.2433 49.8391 37.0819C49.9437 36.9205 49.9996 36.7324 50 36.54V30H52.38L52.99 33.05L52.17 42.09C52.1475 42.3393 52.0323 42.5711 51.8471 42.7396C51.6619 42.9081 51.4203 43.001 51.17 43H42C41.7348 43 41.4804 43.1053 41.2929 43.2929C41.1054 43.4804 41 43.7348 41 44V48H35.84L34.26 39.16L34.27 39.14L36.68 39.95C36.784 39.9805 36.8916 39.9973 37 40C37.2003 40.0002 37.396 39.9402 37.5618 39.8279C37.7276 39.7156 37.8559 39.5561 37.93 39.37ZM37.12 36L36.42 37.75L34.71 37.18L34.34 36.45L35.24 36H37.12ZM38 21H26V18.05L31.68 19.95C31.8881 20.0167 32.1119 20.0167 32.32 19.95L38 18.05V21ZM41 25C41 25.2652 40.8946 25.5196 40.7071 25.7071C40.5196 25.8946 40.2652 26 40 26V24C40.2652 24 40.5196 24.1053 40.7071 24.2929C40.8946 24.4804 41 24.7348 41 25ZM23.16 15L32 12.05L40.84 15L32 17.95L23.16 15ZM26 26V23H38V26C38 27.5913 37.3679 29.1174 36.2426 30.2426C35.1174 31.3678 33.5913 32 32 32C30.4087 32 28.8826 31.3678 27.7574 30.2426C26.6321 29.1174 26 27.5913 26 26ZM31.48 40.83C31.6309 40.9405 31.813 41.0001 32 41.0001C32.187 41.0001 32.3691 40.9405 32.52 40.83L33.81 48H30.19L31.48 40.83ZM31.22 37.8L31.62 37H32.38L32.78 37.8L32 38.59L31.22 37.8ZM32.76 35H31.24L30 34.38V33.74C31.3108 34.0867 32.6892 34.0867 34 33.74V34.38L32.76 35ZM28.76 36L29.66 36.45L29.29 37.18L27.58 37.75L26.88 36H28.76ZM12.34 26.41C12.4779 25.7313 12.8456 25.1209 13.3812 24.6819C13.9168 24.2429 14.5875 24.002 15.28 24H16C16.1515 24.0033 16.3004 24.0404 16.4358 24.1086C16.5712 24.1768 16.6897 24.2743 16.7826 24.394C16.8756 24.5138 16.9406 24.6528 16.973 24.8008C17.0054 24.9489 17.0044 25.1024 16.97 25.25C16.8948 25.4746 16.749 25.669 16.5544 25.8041C16.3598 25.9393 16.1268 26.0079 15.89 26H15C14.7348 26 14.4804 26.1053 14.2929 26.2929C14.1054 26.4804 14 26.7348 14 27V28H12.02L12.34 26.41ZM12.83 43C12.5797 43.001 12.3381 42.9081 12.1529 42.7396C11.9678 42.5711 11.8525 42.3393 11.83 42.09L11.01 33.05L11.62 30H14V36.54C14.0005 36.7332 14.0569 36.9222 14.1625 37.084C14.268 37.2458 14.4182 37.3736 14.5949 37.4519C14.7715 37.5302 14.9671 37.5556 15.1579 37.5251C15.3487 37.4946 15.5266 37.4094 15.67 37.28C16.5823 36.4607 17.7638 36.0051 18.99 36H19.02C20.0406 36.0168 21.0289 36.3602 21.84 36.98C22.0105 37.1114 22.2197 37.1826 22.435 37.1826C22.6503 37.1826 22.8595 37.1114 23.03 36.98C23.5575 36.5965 24.1556 36.3212 24.79 36.17L26.07 39.37C26.1441 39.5561 26.2724 39.7156 26.4382 39.8279C26.604 39.9402 26.7997 40.0002 27 40C27.1084 39.9973 27.216 39.9805 27.32 39.95L29.73 39.14L29.74 39.16L28.16 48H23V44C23 43.7348 22.8946 43.4804 22.7071 43.2929C22.5196 43.1053 22.2652 43 22 43H12.83ZM59 60H9C7.67392 60 6.40215 59.4732 5.46447 58.5355C4.52678 57.5978 4 56.3261 4 55C4 53.6739 4.52678 52.4021 5.46447 51.4645C6.40215 50.5268 7.67392 50 9 50H59C59.2652 50 59.5196 50.1053 59.7071 50.2929C59.8946 50.4804 60 50.7348 60 51C60 51.2652 59.8946 51.5196 59.7071 51.7071C59.5196 51.8946 59.2652 52 59 52H9C8.20435 52 7.44129 52.3161 6.87868 52.8787C6.31607 53.4413 6 54.2043 6 55C6 55.7956 6.31607 56.5587 6.87868 57.1213C7.44129 57.6839 8.20435 58 9 58H59C59.2652 58 59.5196 58.1053 59.7071 58.2929C59.8946 58.4804 60 58.7348 60 59C60 59.2652 59.8946 59.5196 59.7071 59.7071C59.5196 59.8946 59.2652 60 59 60ZM56.18 56H9C8.73478 56 8.48043 55.8946 8.29289 55.7071C8.10536 55.5196 8 55.2652 8 55C8 54.7348 8.10536 54.4804 8.29289 54.2929C8.48043 54.1053 8.73478 54 9 54H56.18C55.94 54.6451 55.94 55.3549 56.18 56Z" fill="black"/>
</svg>
