<?xml version="1.0" encoding="utf-8"?>
<!-- Svg Vector Icons : http://www.onlinewebfonts.com/icon -->
<!DOCTYPE svg PUBLIC "-//W3C//DTD SVG 1.1//EN" "http://www.w3.org/Graphics/SVG/1.1/DTD/svg11.dtd">
<svg version="1.1" xmlns="http://www.w3.org/2000/svg" xmlns:xlink="http://www.w3.org/1999/xlink" x="0px" y="0px" viewBox="0 0 256 256" enable-background="new 0 0 256 256" xml:space="preserve">
<metadata> Svg Vector Icons : http://www.onlinewebfonts.com/icon </metadata>
<g> <path fill="#000000" d="M126.2,65.4c14.1,1.1,26.7,5.5,35.2,17.8c4.6,6.6,5.5,14.2,4.3,22c-0.1,0.7-0.2,1.4-0.4,2 c-0.4,1.4,0.1,2,1.4,2.3c4.7,1.2,5.6,2.4,5.6,7.1c0,4.4-1.2,8.6-2.6,12.8c-1.1,3.3-3.3,5.3-6.9,5.5c-1.4,0.1-1.9,0.7-2.3,2 c-3.6,14.2-12.7,23.8-25.6,30.1c-5.9,2.9-11.7,1.7-17.2-1.4c-9.6-5.5-16.9-13.1-21.1-23.5c-0.7-1.6-1.2-3.3-1.5-5.1 c-0.3-1.5-1-2.1-2.3-2.4c-3-0.6-5.1-2.4-6.3-5.2c-2-4.5-3.1-9.1-3-14c0.1-3.7,1.5-5.4,5-6c1.5-0.3,1.6-1,1.5-2.2 c-0.4-6-0.6-12.1,0.8-18c2.5-10.7,8.3-16,19.2-17.6c0.9-0.1,1.8-0.4,2.7-0.3c2.2,0.1,3.7-0.2,4.5-2.8c0.7-2.3,3.2-3,5.5-3.2 C124,65.3,125.1,65.4,126.2,65.4L126.2,65.4L126.2,65.4z M145.2,214.9c1-2.6,2-5.3,2.9-7.9c3.1-8.5,6.2-17,9.2-25.5 c0.7-1.9,1.4-2.5,3.5-1.7c7.8,2.9,15.7,5.3,23.4,8.3c6.6,2.7,12.5,6.2,15.6,13.1c1.4,3.1,2.1,6.3,2.1,9.6c0,2.4,0,4.8,0,7.1 c0,5.5-4.1,9.5-9.6,9.5c-42.3,0-84.7,0-127,0.1c-4.7,0-8.2-1.5-10.2-5.9c-0.3-0.6-0.6-1.2-0.6-1.7c0-5.3-0.6-10.6,0.9-15.8 c2.4-8.3,8.5-12.9,16.1-15.8c8-3,16.2-5.7,24.3-8.7c1.8-0.7,2.5-0.1,3.2,1.6c3.7,10.6,7.6,21.1,11.4,31.6c0.2,0.6,0.5,1.3,0.7,1.9 c0.9,0.1,1.1-0.7,1.3-1.1c3-5.2,6-10.4,9.1-15.5c0.9-1.4,0.4-2.2-0.7-3c-3.4-2.7-5.2-6.2-5.5-10.4c-0.2-3.1,1.2-5.4,3.9-6.8 c5.8-2.9,11.8-3.2,17.7-0.4c3.8,1.8,5,4.6,4.2,8.7c-0.7,3.7-2.7,6.7-5.5,9.1c-0.9,0.8-1.5,1.5-0.7,2.7c3.3,5.5,6.6,11,9.9,16.6 C144.6,214.7,144.8,214.8,145.2,214.9L145.2,214.9L145.2,214.9z M181.9,28.4c11.6,0.9,22.2,4.8,30.2,14.2c4.8,5.6,6.5,12.4,6,19.7 c-0.1,1.9-0.2,3.8-0.7,5.7c-0.3,1,0.1,1.3,1.1,1.5c4.4,0.8,5.4,1.9,5.4,6.4c0.1,4.6-1.2,8.9-2.7,13.2c-0.9,2.6-3,3.9-5.6,4 c-1.5,0.1-2,0.7-2.4,2.2c-3.4,13.3-11.9,22.3-24.1,28.1c-0.1,0-0.1,0.1-0.2,0.1c-4.7,1.9-5.1,1.5-4.5-3.4 c0.8-6.4-0.3-12.4-4.8-17.3c-0.9-0.9-1.3-1.9-1.3-3.3c-0.3-18.5-9.8-31.2-25.8-39.5c-4-2.1-4-2-3.4-6.5c1-6.5,3.1-12.3,9.1-16 c3.8-2.3,8.1-3.1,12.5-3.3c1.5-0.1,2.3-0.4,2.7-2c0.6-2.3,2.6-3.1,4.8-3.4C179.2,28.5,180.3,28.5,181.9,28.4L181.9,28.4L181.9,28.4 z M71.4,28.4c12.9,1.3,24.4,5.4,32,16.7c2.5,3.8,3.8,8,4.2,12.5c0.2,1.8-0.4,2.5-2.1,2.8c-6.3,1.3-12,3.8-16.7,8.2 c-6.5,6.2-9.3,14.1-10.3,22.8c-0.3,2.7-0.4,5.5-0.5,8.3c0,1-0.3,1.8-1,2.5c-4.8,5.1-6.1,11.1-5.1,17.9c0.7,4.7,0.1,5.2-4.3,3.4 c-12.4-5.3-20.8-14.3-24.5-27.4c-0.5-1.8-1.2-2.9-3.2-3.3c-2.1-0.4-3.5-1.8-4.5-3.7c-2.4-4.6-3.4-9.5-3.1-14.7 c0.1-2.6,1.5-4.2,4.2-4.8c1.5-0.3,1.9-1,1.8-2.3c-0.2-3.7-0.4-7.5-0.1-11.2C39.1,42,45.8,35,60,34.1c1.6-0.1,2.4-0.4,2.9-2.1 c0.7-2.4,2.8-3.1,5-3.4C69.1,28.4,70.2,28.5,71.4,28.4L71.4,28.4L71.4,28.4z M43.2,176c-8.3,0-16.6,0-24.8,0c-4.2,0-7.6-2.8-8-7 c-0.4-3.7-0.4-7.5,0.1-11.2c1.4-9.1,7-14.8,15.1-18.2c6.2-2.6,12.6-4.8,18.9-7.1c2.8-1,2.8-1,3.7,1.7c3.1,9.4,6.2,18.7,9.4,28.1 c0.2,0.7,0.2,1.8,1,1.9c1,0.2,1.2-1,1.6-1.7c2.5-3.7,4.8-7.5,7.3-11.2c0.9-1.3,0.7-2-0.5-3c-3-2.4-5-5.5-5.3-9.6 c-0.1-2.4,0.9-4.2,2.9-5.4c2.7-1.6,5.7-2.1,8.8-1.9c1,0.1,1.5,0.6,1.9,1.4c1.5,3.6,3.7,6.7,6.6,9.3c0.9,0.8,0.9,1.5,0.3,2.4 c-1,1.5-2.1,2.9-3.5,3.9c-1.3,0.9-1.2,1.6-0.4,2.8c3.4,5,6.7,10.1,10.1,15.1c1.6,2.3,1.5,2.6-1.1,3.5c-5.2,1.8-10.5,3.3-15.6,5.5 c-1.2,0.5-2.4,0.5-3.6,0.5C59.7,176,51.4,176,43.2,176L43.2,176L43.2,176z M212.9,176c-8,0-16.1,0-24.1,0c-2.1,0-4.1-0.6-6-1.3 c-4.6-1.6-9.1-3.2-13.7-4.7c-2.5-0.8-2.5-1.1-1.1-3.3c3.3-5.1,6.5-10.2,9.9-15.2c0.8-1.3,1-2.1-0.4-3c-0.6-0.4-1.2-1-1.7-1.6 c-2.3-2.4-2.2-2.7,0.1-5c2.3-2.3,4.1-5,5.1-8.1c0.6-1.8,1.6-2.4,3.4-2.3c3.9,0.2,7.9,0.7,9.5,4.7c1.7,4.2-0.4,7.9-3.3,11 c-2.8,2.9-2.8,2.9-0.6,6.3c2.1,3.2,4.2,6.4,6.3,9.6c0.3,0.5,0.5,1.3,1.2,1.2c0.7-0.1,0.7-0.9,0.9-1.5c3.2-9.5,6.4-19,9.5-28.6 c0.7-2.2,1.5-2.7,3.7-1.8c6.9,2.8,14.1,4.8,20.8,8.1c8.7,4.3,13.5,11.2,13.6,21.1c0,2,0,4,0,6c-0.1,5-3.4,8.3-8.4,8.4 C229.3,176,221.1,176,212.9,176C212.9,176,212.9,176,212.9,176L212.9,176L212.9,176z"/></g>
</svg>