<svg width="142" height="177" viewBox="0 0 142 177" fill="none" xmlns="http://www.w3.org/2000/svg">
<g clip-path="url(#clip0_1342_46)">
<path d="M56 177H13V61.7796L40.5 44.5L71.5 31.5L56 61.7796V177Z" fill="black"/>
<path d="M88 177H130V53.8334L72 30L54 52V116.451H88V177Z" fill="black"/>
<path d="M4 50.5714L71 15.8036L138 49.3888" stroke="black" stroke-width="28" stroke-miterlimit="10" stroke-linecap="round"/>
<path d="M116.182 31.7077L102.393 29.5438V3.8858H116.182V31.7077Z" fill="black"/>
<path d="M36.9669 57.0566H109.141" stroke="white" stroke-width="8" stroke-miterlimit="10"/>
<path d="M36.9669 70.9676H109.141" stroke="white" stroke-width="8" stroke-miterlimit="10"/>
<path d="M36.9669 87.6607H73.0537H109.141" stroke="white" stroke-width="8" stroke-miterlimit="10"/>
<path d="M67.7303 161.935L67.5807 159.993C67.1318 155.955 68.4755 151.542 72.2133 147.056C75.5785 143.095 77.4474 140.178 77.4474 136.813C77.4474 132.998 75.0562 130.458 70.3444 130.384C67.654 130.384 64.6644 131.282 62.7955 132.702L61 127.99C63.4674 126.197 67.7303 125 71.6911 125C80.2903 125 84.1777 130.308 84.1777 135.991C84.1777 141.076 81.3348 144.738 77.7466 149.001C74.4577 152.889 73.2607 156.178 73.4866 159.993L73.56 161.935H67.7303ZM66.0844 172.404C66.0844 169.637 67.9533 167.692 70.5703 167.692C73.1874 167.692 74.9712 169.637 74.9712 172.404C74.9712 175.021 73.2519 177.04 70.4853 177.04C67.877 177.04 66.0844 175.021 66.0844 172.404Z" fill="black"/>
</g>
<defs>
<clipPath id="clip0_1342_46">
<rect width="142" height="177" fill="white"/>
</clipPath>
</defs>
</svg>
