<svg width="55" height="49" viewBox="0 0 55 49" fill="none" xmlns="http://www.w3.org/2000/svg">
<path d="M9.97169 3.14569C9.97301 3.13569 9.97432 3.12662 9.97561 3.11844C10.0325 3.11077 10.1137 3.10241 10.2288 3.09424C10.5944 3.06826 11.2265 3.04885 12.3323 3.03492C14.5382 3.00714 18.5811 3.00156 26.0305 3.00156C33.8029 3.00156 37.8455 3.00714 39.9678 3.03492C41.033 3.04886 41.5993 3.0683 41.9078 3.09379C41.943 3.0967 41.9736 3.09968 42 3.10258C42.0017 3.11591 42.0034 3.13037 42.0051 3.14602C42.0296 3.3711 42.0489 3.75953 42.0628 4.44603C42.0905 5.81181 42.0961 8.28822 42.0961 12.8328C42.0961 17.0312 42.0905 19.5207 42.0683 20.9828C42.0572 21.7156 42.042 22.1806 42.0221 22.4706C42.0177 22.5347 42.0132 22.5878 42.0088 22.6315C41.8346 22.6525 41.5258 22.6704 40.9671 22.6837C39.696 22.714 37.2521 22.7197 32.4755 22.7307L32.4195 22.7309L32.4191 22.7309C28.9233 22.742 26.4491 22.7587 24.8343 22.7838C24.0275 22.7963 23.4312 22.811 23.0278 22.8284C22.8271 22.837 22.6675 22.8466 22.5511 22.8576C22.4941 22.863 22.4379 22.8696 22.3887 22.8784C22.3646 22.8828 22.3323 22.8894 22.2979 22.8997L22.2964 22.9002C22.2755 22.9064 22.1921 22.9314 22.1111 22.9963L22.0997 23.0054L22.0889 23.0151C21.8303 23.2479 21.7559 23.5802 21.7909 23.8606C21.8264 24.1449 21.9782 24.4329 22.2491 24.6209C22.3525 24.693 22.4651 24.7285 22.5617 24.7505C22.6617 24.7732 22.7819 24.7893 22.925 24.8021C23.2122 24.8279 23.6523 24.8454 24.3347 24.858C25.7041 24.8831 28.1031 24.8887 32.3316 24.8887C35.4385 24.8887 37.8621 24.8775 39.5431 24.858C40.3833 24.8483 41.0401 24.8364 41.5048 24.8227C41.7368 24.8159 41.924 24.8085 42.0634 24.8005C42.1794 24.7938 42.3165 24.7847 42.4056 24.7624L42.415 24.7601L42.4244 24.7573C42.7698 24.6566 43.104 24.4622 43.3772 24.229C43.6463 23.9993 43.8908 23.7021 44.0189 23.3692C44.0529 23.2831 44.0655 23.1895 44.071 23.1484L44.0713 23.1458C44.0803 23.0787 44.0881 22.9971 44.0951 22.9057C44.1092 22.7216 44.1219 22.4744 44.1335 22.1763C44.1567 21.5789 44.1759 20.759 44.1912 19.7935C44.2219 17.8616 44.2372 15.3351 44.2372 12.8133C44.2372 10.2916 44.2219 7.77202 44.1912 5.85393C44.1759 4.89542 44.1567 4.08413 44.1335 3.49695C44.1219 3.20412 44.1092 2.96205 44.095 2.78355C44.088 2.69507 44.0801 2.61536 44.0707 2.55005C44.0661 2.51777 44.0602 2.482 44.0522 2.44705L44.0521 2.44678C44.0469 2.424 44.031 2.35448 43.9916 2.28286L43.9906 2.281C43.8455 2.01991 43.6225 1.76174 43.3934 1.5515C43.1666 1.34332 42.8944 1.1459 42.6306 1.03727L42.6306 1.03724L42.6259 1.03537C42.5645 1.0108 42.5061 1.00127 42.486 0.997986L42.4856 0.997919C42.4548 0.992892 42.4221 0.989037 42.3907 0.9859C42.3272 0.979565 42.2468 0.974039 42.1525 0.969006C41.9628 0.958878 41.6962 0.949695 41.3531 0.941308C40.6657 0.924508 39.6563 0.910567 38.3085 0.899428C35.6122 0.877145 31.5526 0.866013 25.9859 0.866013H9.86561H9.73812L9.62619 0.927065L9.1437 1.19024C8.75431 1.38692 8.41779 1.69431 8.19035 2.08766C8.03945 2.32753 7.93242 2.53703 7.87976 2.87558C7.83353 3.17279 7.82928 3.57314 7.82928 4.19375C7.82928 4.56233 7.8334 4.86283 7.84754 5.1039C7.8613 5.33866 7.88601 5.55093 7.9407 5.72762C7.99845 5.91418 8.10521 6.11024 8.31436 6.237C8.5047 6.35235 8.70796 6.36367 8.84139 6.36367C8.99712 6.36367 9.20321 6.3477 9.39659 6.23887C9.60919 6.11923 9.73282 5.93121 9.80439 5.73264C9.87105 5.54773 9.90199 5.32892 9.91931 5.09235C9.93706 4.84994 9.94257 4.55239 9.94257 4.19375C9.94257 3.61452 9.94907 3.31759 9.97169 3.14569ZM9.87465 3.13704C9.87457 3.13701 9.87596 3.13652 9.87902 3.13567C9.87626 3.13665 9.87472 3.13708 9.87465 3.13704ZM41.985 22.7921C41.9849 22.7919 41.9857 22.7889 41.9874 22.7835C41.986 22.7896 41.9851 22.7922 41.985 22.7921Z" fill="black" stroke="black"/>
<path d="M2.53239 9.81609C1.00555 13.0914 3.1268 16.9646 6.72419 17.6217C9.62947 18.1672 12.6094 15.9261 13.1194 12.9171C13.5172 10.6035 12.1546 8.19793 9.95729 7.10944C9.56682 6.90871 9.28598 6.77755 8.95702 6.70137C8.63887 6.62769 8.29452 6.6105 7.7944 6.58875L7.78354 6.58828H7.77268C6.89166 6.58828 6.40598 6.63225 5.90766 6.78961L5.89806 6.79264L5.88859 6.79606C4.41106 7.32894 3.17016 8.44295 2.53239 9.81609ZM2.53239 9.81609L2.98557 10.0273M2.53239 9.81609C2.53228 9.81632 2.53217 9.81655 2.53207 9.81679L2.98557 10.0273M2.98557 10.0273C3.56448 8.78047 4.70002 7.75625 6.05823 7.2664L9.73205 7.55586C11.7582 8.55781 12.9828 10.7621 12.6266 12.8328C12.159 15.5937 9.42033 17.6199 6.81526 17.1301C3.51994 16.5289 1.6051 12.9887 2.98557 10.0273ZM8.88714 8.89186L8.88713 8.89187L8.89043 8.89309C10.4389 9.46658 11.3714 11.272 10.9392 13.001C10.2812 15.6327 6.89663 16.4857 5.02126 14.4735L5.0205 14.4727C4.18143 13.5765 3.89333 12.0217 4.36662 10.7595L4.36667 10.7596L4.36906 10.7529C4.49375 10.4056 4.75712 10.0144 5.10068 9.66581C5.44324 9.31821 5.8312 9.04774 6.17298 8.91236C6.53404 8.77393 7.03124 8.69578 7.54696 8.69321C8.06449 8.69062 8.55017 8.76436 8.88714 8.89186Z" fill="black" stroke="black"/>
<path d="M20.4817 15.8128L20.4817 15.8128C20.8508 15.5444 21.2207 15.4723 21.8223 15.4723H22.2853L23.6953 13.2968C23.6954 13.2967 23.6954 13.2966 23.6955 13.2964C24.5185 12.0187 25.3191 10.7941 25.488 10.5632C25.6213 10.3658 25.8183 10.144 26.1256 10.0741C26.4344 10.004 26.7128 10.12 26.9213 10.2373L26.9267 10.2403L26.9267 10.2403C27.1019 10.3417 27.3169 10.5241 27.361 10.8529C27.3963 11.1161 27.3041 11.3849 27.193 11.6306C26.9618 12.1416 26.4513 12.953 25.5808 14.2862L25.5803 14.287L24.0072 16.6869L24.1545 16.9587L24.1588 16.9667L24.1587 16.9667C24.3235 17.2845 24.4412 17.5732 24.4736 17.8723C24.5074 18.1857 24.4426 18.4585 24.338 18.7331C24.3109 18.8041 24.2658 18.8856 24.2284 18.9505C24.1853 19.0254 24.1301 19.1164 24.0658 19.2192C23.9368 19.4253 23.7641 19.6909 23.563 19.9939C23.1604 20.6006 22.6379 21.3668 22.1107 22.127C21.5834 22.8872 21.0498 23.6436 20.6249 24.2306C20.4126 24.5238 20.2259 24.777 20.0798 24.968C20.007 25.0633 19.9422 25.1459 19.8882 25.2114C19.8422 25.2671 19.7819 25.3383 19.7246 25.3884L19.7178 25.3943L19.7178 25.3943C19.5241 25.5577 19.3177 25.7084 19.0711 25.8076C18.8163 25.91 18.5504 25.945 18.2501 25.9258C17.69 25.89 16.9416 25.6561 15.8033 25.2621M20.4817 15.8128L15.9664 24.7894M20.4817 15.8128L20.4758 15.8172C20.4131 15.8642 20.3542 15.926 20.312 15.9721C20.2631 16.0255 20.2078 16.0904 20.1482 16.163C20.0287 16.3086 19.8812 16.4987 19.7162 16.7187C19.3855 17.1596 18.975 17.7333 18.5598 18.3393C18.1515 18.9352 17.7669 19.468 17.4781 19.8467C17.3735 19.9839 17.2836 20.0979 17.2112 20.1861M20.4817 15.8128L17.2112 20.1861M15.8033 25.2621C15.8031 25.262 15.803 25.262 15.8029 25.2619L15.9664 24.7894M15.8033 25.2621C15.8033 25.2621 15.8034 25.2621 15.8034 25.2621L15.9664 24.7894M15.8033 25.2621C15.5713 25.1821 15.3484 25.108 15.157 25.0463M15.9664 24.7894C15.6767 24.6895 15.4004 24.5986 15.1798 24.5287C15.1796 24.5312 15.1794 24.5338 15.1792 24.5366C15.1745 24.5991 15.1694 24.6979 15.1642 24.8332C15.1618 24.8973 15.1593 24.9685 15.157 25.0463M15.157 25.0463C15.0855 25.0233 15.0184 25.002 14.9569 24.9827C14.8435 24.9472 14.7512 24.9193 14.6862 24.9007C14.6773 24.8982 14.6691 24.8959 14.6617 24.8938C14.6317 25.7551 14.6082 27.6249 14.6082 29.7769C14.6082 33.807 14.5859 35.1875 14.4746 35.2988M15.157 25.0463C15.1494 25.2944 15.1423 25.61 15.136 25.9809C15.1193 26.9543 15.1082 28.2984 15.1082 29.7769C15.1082 31.7909 15.1027 33.1493 15.083 34.0187C15.0733 34.4519 15.0598 34.7738 15.0406 34.9983C15.0312 35.1091 15.0193 35.2095 15.0026 35.293C14.9943 35.3344 14.9825 35.384 14.9642 35.4341C14.951 35.4703 14.918 35.5548 14.8449 35.6349M14.8449 35.6349C14.8517 35.6273 14.8585 35.6194 14.8651 35.6112L14.4746 35.2988M14.8449 35.6349C14.7499 35.74 14.6362 35.7796 14.6059 35.7902L14.6043 35.7907C14.551 35.8093 14.4978 35.8208 14.4546 35.8286C14.3662 35.8445 14.2559 35.856 14.1301 35.8653C13.8749 35.8841 13.5002 35.8975 12.9868 35.9073C11.9569 35.9269 10.3322 35.9324 7.90626 35.9324C5.20298 35.9324 3.58216 35.9269 2.62318 35.9044C2.14626 35.8933 1.81824 35.8777 1.59797 35.8545C1.48943 35.8431 1.38791 35.828 1.3004 35.8045C1.23649 35.7873 1.07378 35.7406 0.953787 35.5966C0.883968 35.5129 0.853767 35.4245 0.841677 35.3866C0.826094 35.3377 0.815561 35.2883 0.807866 35.2448C0.792362 35.157 0.780965 35.0495 0.7718 34.927C0.753289 34.6797 0.740595 34.3242 0.732212 33.8436C0.715401 32.8797 0.715447 31.3769 0.726576 29.151L0.726583 29.1497L0.727055 29.0876C0.748956 26.1964 0.760204 24.7115 0.799473 23.8672C0.8193 23.441 0.847049 23.1551 0.892468 22.9235C0.939206 22.6851 1.00222 22.5182 1.06993 22.3432M14.8449 35.6349C14.8395 35.6407 14.834 35.6466 14.8282 35.6524L14.4746 35.2988M14.4746 35.2988C14.3856 35.4102 12.7602 35.4324 7.90626 35.4324C2.49571 35.4324 1.44923 35.4102 1.3379 35.2766C1.22657 35.143 1.2043 33.6066 1.22657 29.1535L1.06993 22.3432M1.06993 22.3432C1.06926 22.3451 1.06859 22.3469 1.06791 22.3488L1.53829 22.5184L1.072 22.3379C1.07131 22.3396 1.07062 22.3414 1.06993 22.3432ZM1.06993 22.3432C1.81528 20.2813 3.57902 18.5971 5.71454 17.8606M1.06993 22.3432L17.4704 20.2749C17.4697 20.2747 17.4691 20.2745 17.4684 20.2744C17.3326 20.2403 17.2242 20.2745 17.1881 20.2873C17.1386 20.3049 17.1048 20.3263 17.0924 20.3345C17.066 20.3518 17.0532 20.365 17.0597 20.3589C17.0688 20.3503 17.0928 20.3255 17.135 20.2768C17.1577 20.2506 17.1831 20.2203 17.2112 20.1861M5.71454 17.8606C5.71367 17.8609 5.71279 17.8612 5.71192 17.8615L5.88009 18.3324L5.71725 17.8597C5.71635 17.86 5.71545 17.8603 5.71454 17.8606ZM5.71454 17.8606C6.04492 17.7427 6.31748 17.6635 6.67966 17.6214C7.02798 17.581 7.44755 17.5764 8.07059 17.5876M8.07059 17.5876L8.06212 18.0872L8.07104 17.5876C8.07089 17.5876 8.07074 17.5876 8.07059 17.5876ZM8.07059 17.5876C8.72267 17.5986 9.1487 17.6097 9.57682 17.6704C10.0073 17.7314 10.4263 17.8406 11.0733 18.0302M11.0733 18.0302C11.0728 18.0301 11.0723 18.0299 11.0717 18.0298L10.9344 18.5105L11.075 18.0307C11.0745 18.0306 11.0739 18.0304 11.0733 18.0302ZM11.0733 18.0302C11.8728 18.2588 13.6235 18.8653 14.9585 19.3548L14.9653 19.3573L14.9653 19.3573C15.63 19.6121 16.2448 19.8392 16.7041 20.0053C16.907 20.0786 17.079 20.1398 17.2112 20.1861M21.9902 17.6574L22.0015 17.665L22.0132 17.6719C22.2141 17.7906 22.2848 17.8838 22.3059 17.9268C22.3147 17.9446 22.3155 17.9544 22.3155 17.9604C22.3156 17.9677 22.3143 17.9866 22.2993 18.0207C22.2994 18.0207 22.2992 18.021 22.2988 18.0216C22.2934 18.0311 22.2461 18.1131 22.13 18.295C22.0189 18.4689 21.8669 18.7007 21.6863 18.9723C21.3255 19.5149 20.8552 20.2093 20.3801 20.9025C19.9049 21.5957 19.4263 22.286 19.0489 22.8203C18.86 23.0876 18.6977 23.3142 18.5743 23.482C18.5125 23.5661 18.4621 23.6334 18.4238 23.6827C18.3945 23.7203 18.379 23.7388 18.3738 23.7451C18.3715 23.7468 18.3677 23.7494 18.3621 23.7528C18.3482 23.7615 18.3296 23.7712 18.3085 23.7801C18.2924 23.7868 18.2777 23.7919 18.2656 23.7954C18.2352 23.7889 18.1926 23.7789 18.1372 23.7647C18.0186 23.7344 17.8579 23.6896 17.6655 23.6333C17.2826 23.5211 16.7878 23.3672 16.2803 23.2018C15.7519 23.022 15.251 22.8644 14.8662 22.7512C14.6738 22.6946 14.5076 22.6483 14.3801 22.6156C14.3167 22.5994 14.259 22.5856 14.2106 22.5755L14.209 22.5751C14.1771 22.5685 14.1018 22.5527 14.0293 22.5527C13.835 22.5527 13.6659 22.6376 13.5622 22.704C13.4473 22.7775 13.3273 22.8831 13.2377 23.0159C13.1315 23.1702 13.0886 23.3518 13.062 23.5418C13.0341 23.7416 13.0161 24.021 13.0035 24.4202C12.9782 25.2231 12.9727 26.5849 12.9727 28.9309V33.8191H7.90626H2.81759V29.1312C2.81759 27.4182 2.82872 26.0756 2.85085 25.1155C2.86193 24.6351 2.87568 24.254 2.89191 23.9717C2.90904 23.6737 2.92727 23.5241 2.93789 23.479L2.93794 23.479L2.93955 23.4717C3.11877 22.6552 3.51695 21.9109 4.17348 21.2134L4.17364 21.2132C5.43398 19.8729 7.24886 19.3618 9.47487 19.8018C10.5725 20.0392 12.9218 20.8057 15.3886 21.7391C15.9499 21.9524 16.4855 22.1441 16.8975 22.2805C17.1028 22.3485 17.2826 22.4044 17.4218 22.4426C17.4905 22.4614 17.5568 22.4779 17.6147 22.4892C17.6434 22.4948 17.6775 22.5006 17.713 22.504C17.7356 22.5062 17.7985 22.512 17.8731 22.4997C18.0176 22.4763 18.1231 22.4009 18.1676 22.3674C18.2277 22.3223 18.2846 22.2685 18.3358 22.2155C18.4394 22.1085 18.5599 21.9633 18.6948 21.7882C18.9664 21.4357 19.3295 20.9189 19.7867 20.2387C19.9727 19.9677 20.141 19.722 20.2937 19.4993C21.0054 18.4606 21.3747 17.9217 21.5927 17.6377C21.6336 17.5844 21.6652 17.5456 21.6889 17.5177C21.7111 17.525 21.7358 17.5336 21.7625 17.5439C21.8477 17.5766 21.9292 17.6167 21.9902 17.6574Z" fill="black" stroke="black"/>
<path d="M20.5209 28.7352L20.5209 28.7351L20.5096 28.7382C19.5235 29.0094 18.6261 29.5719 17.884 30.314C15.6512 32.5468 15.5448 35.9487 17.6937 38.2449C18.97 39.6172 20.446 40.2354 22.3092 40.1403C22.7529 40.1287 23.074 40.0995 23.3861 40.019C23.6958 39.9391 23.974 39.8139 24.3279 39.648L24.3279 39.648L24.3304 39.6468C26.8105 38.467 28.1962 35.8913 27.6782 33.3509L27.6778 33.3486C27.0979 30.5701 24.6991 28.54 21.9292 28.5645L21.9189 28.5646L21.9086 28.5651C21.4531 28.5878 20.8357 28.6565 20.5209 28.7352ZM23.1394 30.8766L23.1427 30.8776C25.3131 31.5559 26.3224 34.0705 25.1884 36.2437C24.8194 36.922 24.3007 37.406 23.5454 37.7637L23.543 37.7649C23.2854 37.8885 23.1469 37.9379 22.9605 37.9662C22.7491 37.9984 22.4664 38.0051 21.9114 38.0051C21.3176 38.0051 21.0523 37.9977 20.8575 37.9609C20.6891 37.9291 20.5645 37.8739 20.2549 37.7081L20.2549 37.708L20.2472 37.704C19.5265 37.334 18.8898 36.6608 18.5335 35.9086L18.5335 35.9086L18.5324 35.9063C18.4056 35.6421 18.3497 35.4938 18.3172 35.3187C18.2821 35.1304 18.27 34.8896 18.2699 34.4349C18.2912 33.2507 18.5127 32.5996 19.1008 31.9352C20.101 30.8181 21.6521 30.4007 23.1394 30.8766Z" fill="black" stroke="black"/>
<path d="M32.7981 28.7331L32.785 28.7361L32.7721 28.7399C31.3336 29.1543 29.7963 30.3753 29.1066 31.6803C27.6652 34.3929 28.5587 37.5883 31.2125 39.3025C32.226 39.9693 33.2685 40.2106 34.5782 40.1403C35.0215 40.1287 35.3425 40.0995 35.6545 40.019C35.9641 39.9391 36.2424 39.8139 36.5962 39.648L36.5962 39.648L36.5988 39.6468C39.0788 38.467 40.4645 35.8913 39.9466 33.3509L39.9461 33.3486C39.3662 30.5701 36.9674 28.54 34.1975 28.5645L34.1866 28.5646L34.1757 28.5651C33.7395 28.5881 33.128 28.657 32.7981 28.7331ZM35.4318 30.8772L35.4333 30.8776C37.6037 31.5559 38.613 34.0705 37.479 36.2437C37.11 36.922 36.5913 37.406 35.8359 37.7637L35.8336 37.7649C35.576 37.8885 35.4375 37.9379 35.2511 37.9662C35.0397 37.9984 34.757 38.0051 34.2019 38.0051C33.6082 38.0051 33.3428 37.9977 33.1481 37.9609C32.9797 37.9291 32.8551 37.8739 32.5455 37.7081L32.5455 37.708L32.5378 37.704C31.8171 37.334 31.1804 36.6608 30.8241 35.9086L30.8241 35.9086L30.823 35.9063C30.6962 35.6421 30.6403 35.4938 30.6078 35.3187C30.5727 35.1304 30.5606 34.8896 30.5605 34.4349C30.5818 33.2501 30.8035 32.599 31.3922 31.9342L31.3923 31.9342L31.3938 31.9324C32.3689 30.8208 33.9179 30.3991 35.4318 30.8772Z" fill="black" stroke="black"/>
<path d="M44.9147 28.811L44.9147 28.811L44.9094 28.8128C43.8433 29.1682 43.1918 29.541 42.4156 30.3414C41.6093 31.1715 41.113 31.9806 40.8428 33.0365C40.227 35.4258 41.3168 37.9287 43.4806 39.3245C45.0077 40.333 47.1496 40.4774 48.7955 39.7159L48.7955 39.7159L48.7982 39.7146C50.7988 38.7746 52.0432 37.0704 52.31 34.8949C52.401 34.2134 52.2682 33.409 52.0115 32.6598C51.7534 31.9061 51.3527 31.1575 50.8584 30.5879C49.4628 28.9261 46.9173 28.1682 44.9147 28.811ZM47.7002 30.8772L47.7016 30.8776C49.8721 31.5559 50.8814 34.0705 49.7474 36.2437C49.3783 36.9221 48.8596 37.406 48.1043 37.7638L48.1043 37.7637L48.102 37.7649C47.8444 37.8885 47.7059 37.9379 47.5195 37.9662C47.3081 37.9984 47.0254 38.0051 46.4703 38.0051C45.8765 38.0051 45.6112 37.9977 45.4164 37.9609C45.2481 37.9291 45.1234 37.8739 44.8138 37.7081L44.8138 37.7081L44.8097 37.7059C41.9163 36.1903 42.2253 31.9288 45.2756 30.8729L45.2757 30.8729L45.2785 30.8719C45.9225 30.6446 46.9461 30.639 47.7002 30.8772Z" fill="black" stroke="black"/>
<path d="M20.9536 39.8577L20.9535 39.8576L20.9464 39.8587C17.7899 40.3333 15.2401 42.615 14.5007 45.7131C14.3754 46.2259 14.3068 46.6567 14.3172 46.998C14.3272 47.3232 14.4165 47.7206 14.7793 47.9323L14.7793 47.9323L14.7832 47.9345C14.8463 47.9705 14.9041 47.9851 14.9201 47.9892L14.9206 47.9893C14.9458 47.9957 14.9687 47.9997 14.985 48.0023C15.0183 48.0076 15.0539 48.0114 15.0872 48.0144C15.1555 48.0204 15.245 48.0256 15.3521 48.0303C15.5679 48.0397 15.878 48.0479 16.2809 48.0553C17.0879 48.0699 18.2818 48.0811 19.8714 48.0894C23.0513 48.1062 27.823 48.1117 34.2688 48.1117C36.7496 48.1117 38.9214 48.1143 40.8217 48.1165C47.382 48.1242 50.7072 48.1281 52.3399 48.0102C52.8654 47.9723 53.2569 47.9196 53.5353 47.8363C53.796 47.7584 54.12 47.6045 54.2245 47.2435C54.2711 47.0825 54.2549 46.9346 54.2321 46.8285C54.2096 46.7243 54.1724 46.6244 54.1433 46.5491C54.1335 46.5238 54.124 46.4996 54.1148 46.4763C54.0627 46.3433 54.0214 46.238 53.9973 46.1147C53.4266 43.1425 51.2143 40.7867 48.3117 40.0253L48.3115 40.0253C47.2954 39.7592 45.7177 39.7581 44.7188 40.0251C43.0442 40.4505 41.426 41.4868 40.5239 42.7281C40.4772 42.7903 40.4318 42.8503 40.3885 42.907C39.9817 42.3164 39.3325 41.7304 38.6202 41.243C37.8464 40.7136 36.9498 40.2675 36.1141 40.0487C35.6165 39.9092 34.921 39.8476 34.2577 39.8476C33.5933 39.8476 32.8965 39.9094 32.3988 40.0493C30.7485 40.4978 29.1564 41.5338 28.2569 42.7485C28.2097 42.8114 28.1638 42.8721 28.1201 42.9294C27.8564 42.5553 27.4264 42.1321 26.9881 41.7611C26.4824 41.333 25.9035 40.9221 25.4317 40.6859C23.9922 39.9547 22.3768 39.6647 20.9536 39.8577ZM26.8955 44.9825L26.8955 44.9825L26.897 44.9853C27.0063 45.2041 27.1274 45.41 27.2318 45.5697C27.2839 45.6493 27.3348 45.722 27.3806 45.7813C27.4033 45.8107 27.4282 45.8412 27.4538 45.8694C27.4724 45.8898 27.5173 45.9382 27.5789 45.9793L27.6067 45.9978C22.9872 45.9963 20.2149 45.9912 18.5518 45.9734C17.5702 45.9629 16.9875 45.9481 16.6427 45.9282C16.6811 45.8057 16.7298 45.6684 16.7857 45.5251C16.932 45.1501 17.113 44.7709 17.2571 44.5396C17.6184 43.979 18.4131 43.1814 19.0102 42.7693C20.2702 41.9098 22.0011 41.693 23.6586 42.1897C24.9705 42.594 26.265 43.7009 26.8955 44.9825ZM34.2465 45.9984C32.0868 45.9984 30.1834 45.9984 28.506 45.9981C28.5306 45.9866 28.5545 45.9743 28.5778 45.9614C28.8319 45.8203 29.0384 45.5837 29.1468 45.2973C29.6903 43.9118 31.1265 42.6122 32.5951 42.1431L32.5954 42.143C33.6054 41.8198 34.9828 41.8415 35.9667 42.2029L35.9667 42.203L35.9768 42.2065C37.3451 42.6762 38.5339 43.7226 39.1653 44.9853C39.2747 45.2041 39.3958 45.41 39.5002 45.5697C39.5523 45.6493 39.6031 45.722 39.649 45.7813C39.6717 45.8107 39.6965 45.8412 39.7222 45.8694C39.7408 45.8898 39.7857 45.9382 39.8473 45.9793L39.8692 45.9939C38.1222 45.9969 36.238 45.9984 34.2465 45.9984ZM47.3218 45.9678C45.5232 45.9787 43.31 45.987 40.7807 45.9922C40.835 45.9629 40.8861 45.9292 40.9339 45.8923C41.1894 45.6951 41.3802 45.3841 41.5352 45.0401C42.4763 43.1022 44.3463 41.9237 46.5548 41.9441V41.9441H46.5594C48.4347 41.9441 50.1042 42.8571 51.1494 44.4545C51.3019 44.6934 51.5044 45.1196 51.6719 45.5438C51.7238 45.6752 51.7707 45.8023 51.8104 45.9188C51.6138 45.9236 51.3701 45.9283 51.081 45.9327C50.2077 45.9463 48.9314 45.9581 47.3218 45.9678Z" fill="black" stroke="black"/>
</svg>
